<svg width="343" height="343" viewBox="0 0 343 343" fill="none" xmlns="http://www.w3.org/2000/svg">
<path d="M311.179 201.713L335.631 82.4674H94.66L86.2859 42.808L13.6664 7.36914L7.36914 19.8967L73.6914 51.9189L107.188 211.896H300.795C300.795 211.896 319.888 223.888 312.519 239.028C309.236 243.718 304.145 249.479 295.034 249.479H102.364V263.279H295.101C308.365 263.279 319.553 256.312 325.85 245.191C338.177 222.146 311.179 201.713 311.179 201.713V201.713ZM119.112 197.895L97.4736 96.3348H318.883L297.914 197.895H119.112Z" fill="black"/>
<path d="M142.157 282.774C127.486 282.774 115.628 294.565 115.628 309.169C115.628 323.773 127.486 335.564 142.157 335.564C156.829 335.564 168.686 323.773 168.686 309.169C168.686 294.565 156.829 282.774 142.157 282.774ZM142.157 321.696C135.19 321.696 129.563 316.136 129.563 309.169C129.563 302.202 135.123 296.641 142.157 296.641C149.191 296.641 154.752 302.202 154.752 309.169C154.752 316.136 149.125 321.696 142.157 321.696Z" fill="black"/>
<path d="M284.65 282.774C269.979 282.774 258.121 294.565 258.121 309.169C258.121 323.773 269.979 335.631 284.65 335.631C299.321 335.631 311.916 323.84 311.179 309.236C311.179 294.632 299.321 282.774 284.65 282.774ZM297.245 309.236C297.245 316.203 291.684 321.763 284.65 321.763C277.616 321.763 272.055 316.203 272.055 309.236C272.055 302.269 277.616 296.708 284.65 296.708C291.684 296.708 297.914 302.269 297.245 309.236Z" fill="black"/>
</svg>
