<svg width="34" height="34" fill="none" xmlns="http://www.w3.org/2000/svg"><path d="M7.802 10.874L5.94 31.021v.074c0 .26.111.484.307.67.223.187.493.336.8.373h20.119c.308-.037.606-.149.801-.372.186-.187.307-.41.307-.67v-.075l-1.862-20.147a1.528 1.528 0 00-.456-.968 1.189 1.189 0 00-.8-.335h-2.049v4.17c0 .522-.232.838-.763.838-.53 0-.95-.316-.95-.838v-4.17h-8.62v4.17c0 .522-.42.885-.95.838-.522-.046-.857-.316-.857-.838v-4.17H9.012c-.307 0-.605.111-.8.335-.215.26-.373.596-.41.968z" fill="rgba(255, 255, 255, 0)"/><path d="M5.083 33.106a3.24 3.24 0 001.9.894h20.033a3.344 3.344 0 001.937-.894 2.846 2.846 0 00.857-2.01v-.261l-1.825-20.147c-.075-.82-.41-1.564-.969-2.123-.558-.558-1.266-.894-2.085-.894h-1.825V6.107c0-1.675-.67-3.24-1.787-4.32A6.08 6.08 0 0017 0c-1.676 0-3.24.67-4.32 1.788a6.08 6.08 0 00-1.787 4.32v1.6H9.068c-.82 0-1.564.336-2.086.894-.558.559-.893 1.304-.968 2.123L4.19 30.872v.223c.038.782.373 1.49.894 2.011zm7.672-26.961c0-1.192.484-2.235 1.266-3.017s1.825-1.266 3.016-1.266c1.192 0 2.235.484 3.017 1.266s1.266 1.825 1.266 3.017v1.564h-8.565V6.145zM6.089 31.02l1.824-20.147a1.76 1.76 0 01.41-.968c.186-.186.484-.335.782-.335h1.825v4.17c0 .522.41.931.93.931.522 0 .932-.41.932-.93V9.57h8.528v4.17c0 .522.41.931.93.931.522 0 .932-.41.932-.93V9.57h1.825c.297 0 .595.111.782.335.223.223.41.596.446.968L28.06 31.02v.074a.928.928 0 01-.298.67 1.287 1.287 0 01-.782.373H7.131a1.287 1.287 0 01-.782-.372.932.932 0 01-.298-.67l.038-.075z" fill="#1C1C1C"/></svg>