<svg width="513" height="513" viewBox="0 0 513 513" fill="none" xmlns="http://www.w3.org/2000/svg">
<g clip-path="url(#clip0_516_44)">
<path d="M255.998 474.506L457.956 272.548C484.512 245.992 499.138 210.639 499.138 172.99C499.138 135.341 484.512 99.987 457.956 73.432C431.366 46.834 396.013 32.19 358.398 32.19C324.905 32.19 292.188 44.632 265.965 67.527L255.998 76.854L245.707 67.237C219.808 44.63 187.1 32.189 153.598 32.189C115.983 32.189 80.629 46.832 54.04 73.431C27.484 99.987 12.858 135.34 12.858 172.989C12.858 210.638 27.484 246 54.039 272.547L255.998 474.506Z" fill="#FF877F"/>
<path d="M255.998 492.613L467.01 281.601C527 221.612 527 124.366 467.01 64.377C437.015 34.382 397.711 19.389 358.398 19.389C321.619 19.389 285.139 33.051 255.998 59.308C226.848 33.051 190.377 19.389 153.598 19.389C114.285 19.389 74.98 34.382 44.986 64.377C-14.995 124.358 -14.995 221.612 44.986 281.602L255.998 492.613ZM63.085 82.476C87.26 58.301 119.405 44.989 153.598 44.989C184.804 44.989 213.997 56.552 237.293 76.878L255.998 94.371L274.712 76.878C298.008 56.56 327.201 44.989 358.398 44.989C392.591 44.989 424.728 58.301 448.911 82.476C498.822 132.379 498.814 213.591 448.911 263.494L255.998 456.406L63.085 263.502C13.182 213.59 13.182 132.387 63.085 82.476Z" fill="#573A32"/>
</g>
<defs>
<clipPath id="clip0_516_44">
<rect width="512.002" height="512.002" fill="white"/>
</clipPath>
</defs>
</svg>
