<svg width="16" height="16" fill="none" xmlns="http://www.w3.org/2000/svg"><g clip-path="url(#clip0)"><path d="M11.463 1.786a4.152 4.152 0 014.132 4.131C15.595 10.09 8 14.221 8 14.221S.405 10.029.405 5.917a4.132 4.132 0 014.132-4.131A4.091 4.091 0 018 3.649a4.132 4.132 0 013.463-1.863z" fill="transparent"/><path d="M8 14.626a.385.385 0 01-.203-.06C7.494 14.402 0 10.21 0 5.916A4.537 4.537 0 014.537 1.38 4.436 4.436 0 018 2.98a4.537 4.537 0 018 2.937c0 4.355-7.494 8.486-7.797 8.648a.385.385 0 01-.203.061zM4.537 2.191A3.727 3.727 0 00.81 5.917c0 3.484 6.015 7.15 7.19 7.838 1.175-.668 7.19-4.314 7.19-7.838a3.727 3.727 0 00-6.846-2.045.425.425 0 01-.688 0 3.646 3.646 0 00-3.12-1.681z" fill="#1C1C1C"/></g><defs><clipPath id="clip0"><path fill="#fff" d="M0 0h16v16H0z"/></clipPath></defs></svg>