<svg width="28" height="28" fill="none" xmlns="http://www.w3.org/2000/svg"><g clip-path="url(#clip0)" fill="#1C1C1C"><path d="M27.973 8.232c-.066-1.488-.307-2.51-.651-3.397a6.833 6.833 0 00-1.62-2.483A6.892 6.892 0 0023.226.738c-.892-.344-1.91-.585-3.397-.65C18.33.016 17.853 0 14.052 0c-3.802 0-4.277.016-5.77.082-1.488.066-2.511.306-3.397.65A6.832 6.832 0 002.4 2.353 6.894 6.894 0 00.788 4.83C.443 5.722.202 6.739.137 8.227.066 9.725.049 10.2.049 14.003c0 3.801.017 4.277.082 5.77.066 1.488.307 2.511.651 3.397a6.897 6.897 0 001.62 2.483 6.89 6.89 0 002.477 1.614c.892.345 1.909.585 3.397.65 1.493.067 1.97.083 5.77.083 3.802 0 4.278-.016 5.771-.082 1.488-.066 2.51-.306 3.397-.651a7.162 7.162 0 004.097-4.097c.344-.891.585-1.909.65-3.397.066-1.493.083-1.969.083-5.77 0-3.802-.006-4.278-.071-5.77zM25.45 19.664c-.06 1.367-.29 2.106-.481 2.598a4.645 4.645 0 01-2.659 2.659c-.492.191-1.236.42-2.598.48-1.477.067-1.92.083-5.656.083-3.736 0-4.184-.016-5.655-.082-1.368-.06-2.106-.29-2.599-.481a4.31 4.31 0 01-1.608-1.045 4.354 4.354 0 01-1.044-1.608c-.192-.493-.422-1.236-.482-2.598-.065-1.477-.082-1.92-.082-5.656 0-3.736.017-4.185.082-5.656.06-1.368.29-2.106.482-2.598.224-.607.58-1.16 1.05-1.608a4.34 4.34 0 011.608-1.045c.492-.192 1.236-.421 2.598-.481 1.477-.066 1.92-.083 5.656-.083 3.741 0 4.184.017 5.656.083 1.367.06 2.106.29 2.598.48.607.225 1.16.58 1.608 1.046.465.454.82 1 1.045 1.608.191.492.42 1.236.481 2.598.066 1.477.082 1.92.082 5.656 0 3.736-.016 4.173-.082 5.65z"/><path d="M14.052 6.81a7.195 7.195 0 00-7.193 7.192 7.195 7.195 0 007.193 7.193 7.194 7.194 0 007.193-7.193 7.194 7.194 0 00-7.193-7.192zm0 11.858a4.667 4.667 0 11.001-9.333 4.667 4.667 0 01-.001 9.333zm9.157-12.142a1.68 1.68 0 11-3.36 0 1.68 1.68 0 013.36 0z"/></g><defs><clipPath id="clip0"><path fill="#fff" d="M0 0h28v28H0z"/></clipPath></defs></svg>