<svg width="266" height="266" viewBox="0 0 266 266" fill="none" xmlns="http://www.w3.org/2000/svg">
<g clip-path="url(#clip0)">
<path d="M0.0565247 184.579C0.0565247 219.551 28.4051 247.9 63.3763 247.9C98.3481 247.9 126.697 219.551 126.697 184.579C126.697 149.607 98.3481 121.259 63.3763 121.259C56.1892 121.259 49.3094 122.512 42.8689 124.72C57.1185 42.9947 120.849 -9.70906 61.771 33.6672C-3.73731 81.7666 -0.0136346 182.644 0.0596661 184.493C0.0596661 184.522 0.0565247 184.547 0.0565247 184.579Z" fill="#1C1C1C" fill-opacity="0.05"/>
<path d="M139.36 184.579C139.36 219.551 167.708 247.9 202.68 247.9C237.652 247.9 266.001 219.551 266.001 184.579C266.001 149.607 237.652 121.259 202.68 121.259C195.492 121.259 188.613 122.512 182.172 124.72C196.422 42.9947 260.152 -9.70906 201.074 33.6672C135.566 81.7666 139.289 182.644 139.363 184.493C139.363 184.522 139.36 184.547 139.36 184.579Z" fill="#1C1C1C" fill-opacity="0.05"/>
</g>
<defs>
<clipPath id="clip0">
<rect width="266" height="266" fill="white"/>
</clipPath>
</defs>
</svg>
