<svg width="266" height="266" fill="none" xmlns="http://www.w3.org/2000/svg"><g clip-path="url(#clip0)" fill="#1C1C1C" fill-opacity=".05"><path d="M.057 184.579c0 34.972 28.348 63.321 63.32 63.321 34.971 0 63.32-28.349 63.32-63.321 0-34.972-28.349-63.32-63.32-63.32-7.188 0-14.068 1.253-20.508 3.461 14.25-81.725 77.98-134.43 18.902-91.053C-3.737 81.767-.014 182.644.06 184.493c0 .029-.003.054-.003.086zm139.303 0c0 34.972 28.348 63.321 63.32 63.321s63.321-28.349 63.321-63.321c0-34.972-28.349-63.32-63.321-63.32-7.188 0-14.067 1.253-20.508 3.461 14.25-81.725 77.98-134.43 18.902-91.053-65.508 48.1-61.785 148.977-61.711 150.826 0 .029-.003.054-.003.086z"/></g><defs><clipPath id="clip0"><path fill="#fff" d="M0 0h266v266H0z"/></clipPath></defs></svg>