<svg width="20" height="20" fill="none" xmlns="http://www.w3.org/2000/svg"><g clip-path="url(#clip0)"><path d="M19.515 7.774a1.015 1.015 0 00-.875-.7l-5.522-.501-2.183-5.111a1.016 1.016 0 00-1.87.001l-2.183 5.11-5.523.502a1.017 1.017 0 00-.577 1.778l4.175 3.66-1.231 5.422a1.018 1.018 0 001.512 1.1L10 16.187l4.76 2.847a1.018 1.018 0 001.513-1.098l-1.23-5.421 4.175-3.66c.306-.269.423-.693.297-1.081z" fill="#A99260"/><path d="M4.478 19.595a1.063 1.063 0 01-1.037-1.3l1.286-5.667L.364 8.803A1.062 1.062 0 01.967 6.94l5.774-.524 2.282-5.342a1.063 1.063 0 011.955-.001l2.281 5.343 5.774.524a1.062 1.062 0 01.603 1.86l-4.362 3.826 1.286 5.667a1.062 1.062 0 01-1.58 1.149L10 16.468l-4.978 2.977c-.169.1-.356.15-.544.15zM10 15.186c.19 0 .377.05.545.15l4.699 2.811-1.215-5.35a1.062 1.062 0 01.337-1.035l4.12-3.614-5.45-.495a1.057 1.057 0 01-.883-.644L10 1.97 7.846 7.01c-.153.362-.49.608-.883.643l-5.45.495 4.12 3.614c.295.258.424.655.337 1.037l-1.214 5.349 4.698-2.81c.17-.1.357-.15.546-.15zM6.696 6.521zm6.608-.003v.001z" fill="#1C1C1C"/></g><defs><clipPath id="clip0"><path fill="#fff" d="M0 0h20v20H0z"/></clipPath></defs></svg>