<svg width="28" height="28" fill="none" xmlns="http://www.w3.org/2000/svg"><g clip-path="url(#clip0)"><path d="M23.234 15.2c-.453-.572-.323-.826 0-1.337.006-.006 3.743-5.17 4.128-6.92l.002-.002c.191-.638 0-1.107-.925-1.107h-3.061c-.78 0-1.139.402-1.331.853 0 0-1.56 3.73-3.764 6.15-.712.698-1.04.922-1.43.922-.19 0-.488-.224-.488-.862V6.941c0-.765-.218-1.107-.863-1.107h-4.814c-.489 0-.78.357-.78.69 0 .725 1.103.892 1.217 2.934v4.43c0 .97-.176 1.149-.567 1.149-1.04 0-3.566-3.747-5.063-8.034-.302-.832-.597-1.168-1.383-1.168H1.05c-.874 0-1.05.403-1.05.853 0 .796 1.04 4.752 4.84 9.979 2.531 3.567 6.096 5.5 9.34 5.5 1.95 0 2.187-.429 2.187-1.168 0-3.409-.176-3.73.8-3.73.453 0 1.232.224 3.052 1.944 2.08 2.04 2.422 2.954 3.587 2.954h3.061c.873 0 1.315-.429 1.06-1.276-.581-1.781-4.515-5.446-4.693-5.691z" fill="#1C1C1C"/></g><defs><clipPath id="clip0"><path fill="#fff" d="M0 0h28v28H0z"/></clipPath></defs></svg>