<svg width="16" height="16" viewBox="0 0 16 16" fill="none" xmlns="http://www.w3.org/2000/svg">
<g clip-path="url(#clip0)">
<path d="M11.4633 1.78553C13.7405 1.79661 15.5838 3.63993 15.5949 5.91718C15.5949 10.0893 8.00002 14.221 8.00002 14.221C8.00002 14.221 0.405067 10.0286 0.405067 5.91718C0.405067 3.63535 2.25485 1.78553 4.53672 1.78553C5.93353 1.77463 7.2394 2.47718 8.00002 3.6488C8.76584 2.48288 10.0683 1.78215 11.4633 1.78553Z" fill="transparent"/>
<path d="M7.99998 14.626C7.92811 14.6251 7.85794 14.604 7.79747 14.5653C7.49366 14.4032 0 10.2108 0 5.91716C0 3.41161 2.03113 1.38044 4.53672 1.38044C5.87325 1.3647 7.14562 1.95251 8.00002 2.98042C9.61845 1.06768 12.481 0.829114 14.3937 2.44755C15.4142 3.31098 16.0019 4.58044 16 5.91712C16 10.2716 8.50638 14.4032 8.20257 14.5652C8.14202 14.604 8.07185 14.625 7.99998 14.626ZM4.53672 2.19057C2.47861 2.19057 0.810128 3.85901 0.810128 5.91716C0.810128 9.4007 6.8253 13.0665 7.99998 13.7551C9.17466 13.0868 15.1898 9.44121 15.1898 5.91716C15.1932 3.85905 13.5275 2.18786 11.4694 2.18444C10.2095 2.18239 9.03379 2.81706 8.3443 3.87157C8.20641 4.06172 7.94044 4.10409 7.75029 3.96616C7.71397 3.9398 7.68202 3.90789 7.6557 3.87157C6.97656 2.80974 5.79708 2.17402 4.53672 2.19057Z" fill="#1C1C1C"/>
</g>
<defs>
<clipPath id="clip0">
<rect width="16" height="16" fill="white"/>
</clipPath>
</defs>
</svg>
