<?xml version="1.0" encoding="utf-8"?><svg viewBox="0 0 513 513" xmlns="http://www.w3.org/2000/svg" xmlns:xlink="http://www.w3.org/1999/xlink"><style>:root>svg{display:none}:root>svg:target{display:block}</style><svg viewBox="0 0 34 34" id="cart" xmlns="http://www.w3.org/2000/svg"><path d="M7.802 10.874L5.94 31.021v.074c0 .26.111.484.307.67.223.187.493.336.8.373h20.119c.308-.037.606-.149.801-.372.186-.187.307-.41.307-.67v-.075l-1.862-20.147a1.528 1.528 0 00-.456-.968 1.189 1.189 0 00-.8-.335h-2.049v4.17c0 .522-.232.838-.763.838-.53 0-.95-.316-.95-.838v-4.17h-8.62v4.17c0 .522-.42.885-.95.838-.522-.046-.857-.316-.857-.838v-4.17H9.012c-.307 0-.605.111-.8.335-.215.26-.373.596-.41.968z"/><path d="M5.083 33.106a3.24 3.24 0 001.9.894H27.016a3.344 3.344 0 001.937-.894 2.846 2.846 0 00.857-2.01v-.261l-1.825-20.147c-.075-.82-.41-1.564-.969-2.123-.558-.558-1.266-.894-2.085-.894h-1.825V6.107c0-1.675-.67-3.24-1.787-4.32A6.08 6.08 0 0017 0c-1.676 0-3.24.67-4.32 1.788a6.08 6.08 0 00-1.787 4.32v1.6H9.068c-.82 0-1.564.336-2.086.894-.558.559-.893 1.304-.968 2.123L4.19 30.872v.223c.038.782.373 1.49.894 2.011zm7.672-26.961c0-1.192.484-2.235 1.266-3.017s1.825-1.266 3.016-1.266c1.192 0 2.235.484 3.017 1.266s1.266 1.825 1.266 3.017v1.564h-8.565V6.145zM6.089 31.02l1.824-20.147c.038-.372.187-.708.41-.968.186-.186.484-.335.782-.335h1.825v4.17c0 .522.41.931.93.931.522 0 .932-.41.932-.93V9.57h8.528v4.17c0 .522.41.931.93.931.522 0 .932-.41.932-.93V9.57h1.825c.297 0 .595.111.782.335.223.223.41.596.446.968l1.825 20.147v.074c0 .261-.111.484-.298.67a1.287 1.287 0 01-.782.373H7.131a1.287 1.287 0 01-.782-.372.932.932 0 01-.298-.67l.038-.075z"/></svg><svg viewBox="0 0 343 343" id="cart2" xmlns="http://www.w3.org/2000/svg"><path d="M311.179 201.713l24.452-119.246H94.66l-8.374-39.659-72.62-35.439L7.37 19.897l66.322 32.022 33.497 159.977h193.607s19.093 11.992 11.724 27.132c-3.283 4.69-8.374 10.451-17.485 10.451h-192.67v13.8h192.737c13.264 0 24.452-6.967 30.749-18.088 12.327-23.045-14.671-43.478-14.671-43.478zm-192.067-3.818L97.474 96.335h221.409l-20.969 101.56H119.112zM142.157 282.774c-14.671 0-26.529 11.791-26.529 26.395s11.858 26.395 26.529 26.395c14.672 0 26.529-11.791 26.529-26.395s-11.857-26.395-26.529-26.395zm0 38.922c-6.967 0-12.594-5.56-12.594-12.527s5.56-12.528 12.594-12.528 12.595 5.561 12.595 12.528c0 6.967-5.627 12.527-12.595 12.527zM284.65 282.774c-14.671 0-26.529 11.791-26.529 26.395s11.858 26.462 26.529 26.462 27.266-11.791 26.529-26.395c0-14.604-11.858-26.462-26.529-26.462zm12.595 26.462c0 6.967-5.561 12.527-12.595 12.527-7.034 0-12.595-5.56-12.595-12.527s5.561-12.528 12.595-12.528c7.034 0 13.264 5.561 12.595 12.528z"/></svg><svg viewBox="0 0 153 153" id="check" xmlns="http://www.w3.org/2000/svg"><g clip-path="url(#cclip0_508_5)"><path d="M148.519 46.974l-80.714 80.708c-5.977 5.978-15.673 5.978-21.656 0L4.485 86.014c-5.979-5.978-5.979-15.675 0-21.654 5.98-5.98 15.676-5.98 21.653-.003L56.98 95.201l69.882-69.883c5.981-5.98 15.676-5.976 21.654 0 5.978 5.98 5.978 15.673.003 21.655z"/></g><defs><clipPath id="cclip0_508_5"><path d="M0 0h153v153H0z"/></clipPath></defs></svg><svg viewBox="0 0 24 25" id="close" xmlns="http://www.w3.org/2000/svg"><path d="M19 6.91L17.59 5.5 12 11.09 6.41 5.5 5 6.91l5.59 5.59L5 18.09l1.41 1.41L12 13.91l5.59 5.59L19 18.09l-5.59-5.59L19 6.91z"/></svg><svg viewBox="0 0 39 31" id="email" xmlns="http://www.w3.org/2000/svg"><path d="M34.5.5h-30C2.437.5.769 2.188.769 4.25L.75 26.75A3.761 3.761 0 004.5 30.5h30a3.761 3.761 0 003.75-3.75V4.25A3.761 3.761 0 0034.5.5zm0 7.5l-15 9.375L4.5 8V4.25l15 9.375 15-9.375V8z"/></svg><svg viewBox="0 0 28 28" id="facebook" xmlns="http://www.w3.org/2000/svg"><g clip-path="url(#fclip0)"><path d="M18.663 4.65h2.556V.196C20.78.137 19.262 0 17.495 0c-3.685 0-6.21 2.318-6.21 6.579V10.5H7.218v4.977h4.067V28h4.986V15.478h3.903l.62-4.977H16.27V7.072c.002-1.438.389-2.423 2.393-2.423z"/></g><defs><clipPath id="fclip0"><path d="M0 0h28v28H0z"/></clipPath></defs></svg><svg viewBox="0 0 513 513" id="heart" xmlns="http://www.w3.org/2000/svg"><g clip-path="url(#gclip0_516_44)"><path d="M255.998 474.506l201.958-201.958c26.556-26.556 41.182-61.909 41.182-99.558 0-37.649-14.626-73.003-41.182-99.558-26.59-26.598-61.943-41.242-99.558-41.242-33.493 0-66.21 12.442-92.433 35.337l-9.967 9.327-10.291-9.617C219.808 44.63 187.1 32.189 153.598 32.189c-37.615 0-72.969 14.643-99.558 41.242-26.556 26.556-41.182 61.909-41.182 99.558 0 37.649 14.626 73.011 41.181 99.558l201.959 201.959z"/><path d="M255.998 492.613L467.01 281.601c59.99-59.989 59.99-157.235 0-217.224-29.995-29.995-69.299-44.988-108.612-44.988-36.779 0-73.259 13.662-102.4 39.919-29.15-26.257-65.621-39.919-102.4-39.919-39.313 0-78.618 14.993-108.612 44.988-59.981 59.981-59.981 157.235 0 217.225l211.012 211.011zM63.085 82.476c24.175-24.175 56.32-37.487 90.513-37.487 31.206 0 60.399 11.563 83.695 31.889l18.705 17.493 18.714-17.493c23.296-20.318 52.489-31.889 83.686-31.889 34.193 0 66.33 13.312 90.513 37.487 49.911 49.903 49.903 131.115 0 181.018L255.998 456.406 63.085 263.502c-49.903-49.912-49.903-131.115 0-181.026z"/></g><defs><clipPath id="gclip0_516_44"><path d="M0 0h512.002v512.002H0z"/></clipPath></defs></svg><svg viewBox="0 0 28 28" id="instagram" xmlns="http://www.w3.org/2000/svg"><g clip-path="url(#hclip0)"><path d="M27.973 8.232c-.066-1.488-.307-2.51-.651-3.397a6.833 6.833 0 00-1.62-2.483A6.892 6.892 0 0023.226.738c-.892-.344-1.91-.585-3.397-.65C18.33.016 17.853 0 14.052 0c-3.802 0-4.277.016-5.77.082-1.488.066-2.511.306-3.397.65A6.832 6.832 0 002.4 2.353 6.894 6.894 0 00.788 4.83C.443 5.722.202 6.739.137 8.227.066 9.725.049 10.2.049 14.003c0 3.801.017 4.277.082 5.77.066 1.488.307 2.511.651 3.397.356.941.908 1.783 1.62 2.483a6.89 6.89 0 002.477 1.614c.892.345 1.909.585 3.397.65 1.493.067 1.97.083 5.77.083 3.802 0 4.278-.016 5.771-.082 1.488-.066 2.51-.306 3.397-.651a7.162 7.162 0 004.097-4.097c.344-.891.585-1.909.65-3.397.066-1.493.083-1.969.083-5.77 0-3.802-.006-4.278-.071-5.77zM25.45 19.664c-.06 1.367-.29 2.106-.481 2.598a4.645 4.645 0 01-2.659 2.659c-.492.191-1.236.42-2.598.48-1.477.067-1.92.083-5.656.083-3.736 0-4.184-.016-5.655-.082-1.368-.06-2.106-.29-2.599-.481a4.31 4.31 0 01-1.608-1.045 4.354 4.354 0 01-1.044-1.608c-.192-.493-.422-1.236-.482-2.598-.065-1.477-.082-1.92-.082-5.656 0-3.736.017-4.185.082-5.656.06-1.368.29-2.106.482-2.598.224-.607.58-1.16 1.05-1.608.454-.465 1-.821 1.608-1.045.492-.192 1.236-.421 2.598-.481 1.477-.066 1.92-.083 5.656-.083 3.741 0 4.184.017 5.656.083 1.367.06 2.106.29 2.598.48.607.225 1.16.58 1.608 1.046.465.454.82 1 1.045 1.608.191.492.42 1.236.481 2.598.066 1.477.082 1.92.082 5.656 0 3.736-.016 4.173-.082 5.65z"/><path d="M14.052 6.81a7.195 7.195 0 00-7.193 7.192 7.195 7.195 0 007.193 7.193 7.194 7.194 0 007.193-7.193 7.194 7.194 0 00-7.193-7.192zm0 11.858a4.667 4.667 0 11.001-9.333 4.667 4.667 0 01-.001 9.333zM23.209 6.526a1.68 1.68 0 11-3.36 0 1.68 1.68 0 013.36 0z"/></g><defs><clipPath id="hclip0"><path d="M0 0h28v28H0z"/></clipPath></defs></svg><svg viewBox="0 0 328 328" id="logo" xmlns="http://www.w3.org/2000/svg"><path d="M87.2 93.878L0 243.114h96.71l87.723-198.528-97.232 49.292z"/><path d="M198.104 61.109l-49.798 113.633 69.879 89.431H80.823v19.241H328L198.104 61.109z"/></svg><svg viewBox="0 0 30 31" id="next" xmlns="http://www.w3.org/2000/svg"><path d="M10.737 21.238l5.725-5.738-5.725-5.738L12.5 8l7.5 7.5-7.5 7.5-1.763-1.762z"/></svg><svg viewBox="0 0 46 47" id="phone" xmlns="http://www.w3.org/2000/svg"><path d="M12.912 21.188c2.7 5.407 7.05 9.82 12.357 12.59l4.125-4.203a1.84 1.84 0 011.912-.459c2.1.707 4.369 1.09 6.694 1.09 1.031 0 1.875.859 1.875 1.91v6.667c0 1.05-.844 1.91-1.875 1.91-17.606 0-31.875-14.538-31.875-32.476 0-1.05.844-1.91 1.875-1.91h6.563c1.03 0 1.874.86 1.874 1.91 0 2.388.375 4.68 1.07 6.82a1.943 1.943 0 01-.47 1.948l-4.124 4.203z"/></svg><svg viewBox="0 0 30 31" id="prev" xmlns="http://www.w3.org/2000/svg"><path d="M19.262 21.238L13.537 15.5l5.725-5.738L17.5 8 10 15.5l7.5 7.5 1.762-1.762z"/></svg><svg viewBox="0 0 266 266" id="quote" xmlns="http://www.w3.org/2000/svg"><g clip-path="url(#mclip0)" fill-opacity=".05"><path d="M.057 184.579c0 34.972 28.348 63.321 63.32 63.321 34.971 0 63.32-28.349 63.32-63.321 0-34.972-28.349-63.32-63.32-63.32-7.188 0-14.068 1.253-20.508 3.461 14.25-81.725 77.98-134.43 18.902-91.053C-3.737 81.767-.014 182.644.06 184.493c0 .029-.003.054-.003.086zM139.36 184.579c0 34.972 28.348 63.321 63.32 63.321s63.321-28.349 63.321-63.321c0-34.972-28.349-63.32-63.321-63.32-7.188 0-14.067 1.253-20.508 3.461 14.25-81.725 77.98-134.43 18.902-91.053-65.508 48.1-61.785 148.977-61.711 150.826 0 .029-.003.054-.003.086z"/></g><defs><clipPath id="mclip0"><path d="M0 0h266v266H0z"/></clipPath></defs></svg><svg viewBox="0 0 490 490" id="sad" xmlns="http://www.w3.org/2000/svg"><path d="M140.1 364.15c4.396-3.26 108.773-78.91 214.584 0l18.303-24.554c-124.399-92.81-249.965-.912-251.221.015L140.1 364.15zM138.171 228.76l28.278-28.28 28.277 28.28 21.653-21.653-28.278-28.28 28.278-28.281-21.653-21.653-28.277 28.28-28.278-28.28-21.652 21.653 28.278 28.281-28.278 28.28zM295.274 228.76l28.277-28.28 28.278 28.28 21.652-21.653-28.278-28.28 28.278-28.281-21.652-21.653-28.278 28.28-28.277-28.28-21.653 21.653 28.278 28.281-28.278 28.28z"/><path d="M69.086 490h351.829C459.001 490 490 459.001 490 420.914V69.086C490 30.991 459.001 0 420.914 0H69.086C30.999 0 0 30.991 0 69.086v351.829C0 459.001 30.999 490 69.086 490zM30.625 69.086c0-21.204 17.256-38.461 38.461-38.461h351.829c21.204 0 38.461 17.257 38.461 38.461v351.829c0 21.204-17.257 38.461-38.461 38.461H69.086c-21.204 0-38.461-17.257-38.461-38.461V69.086z"/></svg><svg viewBox="0 0 17 17" id="search" xmlns="http://www.w3.org/2000/svg"><path fill-rule="evenodd" clip-rule="evenodd" d="M11.958 10.957l4.834 4.834a.708.708 0 11-1.001 1.001l-4.835-4.834a6.697 6.697 0 01-4.227 1.5A6.737 6.737 0 010 6.73C0 3.02 3.019 0 6.73 0c3.71 0 6.728 3.019 6.728 6.73 0 1.6-.564 3.07-1.5 4.226zM1.417 6.729a5.318 5.318 0 005.312 5.313 5.318 5.318 0 005.312-5.313A5.318 5.318 0 006.73 1.417a5.318 5.318 0 00-5.312 5.312z"/></svg><svg viewBox="0 0 20 20" id="star" xmlns="http://www.w3.org/2000/svg"><g clip-path="url(#pclip0)"><path d="M19.515 7.774a1.015 1.015 0 00-.875-.7l-5.522-.501-2.183-5.111a1.016 1.016 0 00-1.87.001l-2.183 5.11-5.523.502a1.017 1.017 0 00-.577 1.778l4.175 3.66-1.231 5.422a1.018 1.018 0 001.512 1.1L10 16.187l4.76 2.847a1.018 1.018 0 001.513-1.098l-1.23-5.421 4.175-3.66c.306-.269.423-.693.297-1.081z"/><path d="M4.478 19.595a1.063 1.063 0 01-1.037-1.3l1.286-5.667L.364 8.803A1.062 1.062 0 01.967 6.94l5.774-.524 2.282-5.342a1.063 1.063 0 011.955-.001l2.281 5.343 5.774.524a1.062 1.062 0 01.603 1.86l-4.362 3.826 1.286 5.667a1.062 1.062 0 01-1.58 1.149L10 16.468l-4.978 2.977c-.169.1-.356.15-.544.15zM10 15.186c.19 0 .377.05.545.15l4.699 2.811-1.215-5.35a1.062 1.062 0 01.337-1.035l4.12-3.614-5.45-.495c-.392-.035-.73-.281-.883-.644L10 1.97l-2.154 5.04c-.153.362-.49.608-.883.643l-5.45.495 4.12 3.614c.295.258.424.655.337 1.037l-1.214 5.349 4.698-2.81c.17-.1.357-.15.546-.15zM6.696 6.521zm6.608-.003v.001z"/></g><defs><clipPath id="pclip0"><path d="M0 0h20v20H0z"/></clipPath></defs></svg><svg viewBox="0 0 28 28" id="twitter" xmlns="http://www.w3.org/2000/svg"><g clip-path="url(#qclip0)"><path d="M28 5.318c-1.041.457-2.15.76-3.308.907a5.708 5.708 0 002.526-3.173 11.472 11.472 0 01-3.64 1.39 5.739 5.739 0 00-9.93 3.925c0 .455.039.892.133 1.309C9.01 9.443 4.786 7.156 1.95 3.67a5.78 5.78 0 00-.785 2.902 5.749 5.749 0 002.55 4.77 5.668 5.668 0 01-2.594-.707v.064c0 2.789 1.99 5.106 4.599 5.64a5.731 5.731 0 01-1.505.189c-.368 0-.739-.021-1.087-.098.744 2.273 2.854 3.944 5.364 3.998a11.534 11.534 0 01-7.117 2.449c-.471 0-.923-.021-1.374-.079a16.16 16.16 0 008.806 2.576c10.563 0 16.338-8.75 16.338-16.334 0-.254-.009-.5-.021-.742A11.452 11.452 0 0028 5.319z"/></g><defs><clipPath id="qclip0"><path d="M0 0h28v28H0z"/></clipPath></defs></svg><svg viewBox="0 0 28 28" id="vk" xmlns="http://www.w3.org/2000/svg"><g clip-path="url(#rclip0)"><path d="M23.234 15.2c-.453-.572-.323-.826 0-1.337.006-.006 3.743-5.17 4.128-6.92l.002-.002c.191-.638 0-1.107-.925-1.107h-3.061c-.78 0-1.139.402-1.331.853 0 0-1.56 3.73-3.764 6.15-.712.698-1.04.922-1.43.922-.19 0-.488-.224-.488-.862V6.941c0-.765-.218-1.107-.863-1.107h-4.814c-.489 0-.78.357-.78.69 0 .725 1.103.892 1.217 2.934v4.43c0 .97-.176 1.149-.567 1.149-1.04 0-3.566-3.747-5.063-8.034-.302-.832-.597-1.168-1.383-1.168H1.05c-.874 0-1.05.403-1.05.853 0 .796 1.04 4.752 4.84 9.979 2.531 3.567 6.096 5.5 9.34 5.5 1.95 0 2.187-.429 2.187-1.168 0-3.409-.176-3.73.8-3.73.453 0 1.232.224 3.052 1.944 2.08 2.04 2.422 2.954 3.587 2.954h3.061c.873 0 1.315-.429 1.06-1.276-.581-1.781-4.515-5.446-4.693-5.691z"/></g><defs><clipPath id="rclip0"><path d="M0 0h28v28H0z"/></clipPath></defs></svg></svg>